<svg fill="none" xmlns="http://www.w3.org/2000/svg"><path d="M12.36 40.3c-3.16 0-5.84-.92-8.04-2.76-2.36-1.92-3.54-4.42-3.54-7.5 0-3.2 1.28-5.92 3.84-8.16 2.4-2.12 5.26-3.18 8.58-3.18 2.48 0 4.44.64 5.88 1.92 1.56 1.32 2.34 3.2 2.34 5.64 0 1.8-.86 3.4-2.58 4.8-1.6 1.32-3.36 1.98-5.28 1.98-1.52 0-2.84-.32-3.96-.96-1.44-.72-2.16-1.8-2.16-3.24 0-.64.22-1.3.66-1.98.4-.76.94-1.14 1.62-1.14.16 0 .24.06.24.18 0 .04-.18.22-.54.54l-.48.48c-.12.12-.2.22-.24.3-.28.56-.42 1.08-.42 1.56 0 1.16.48 2.1 1.44 2.82.92.68 1.96 1.02 3.12 1.02 1.96 0 3.6-.72 4.92-2.16 1.32-1.4 1.98-3.08 1.98-5.04s-.62-3.5-1.86-4.62c-1.24-1.12-2.84-1.68-4.8-1.68-3.04 0-5.62 1.2-7.74 3.6-1.96 2.24-2.94 4.96-2.94 8.16 0 2.76 1.14 4.98 3.42 6.66 2 1.52 4.46 2.28 7.38 2.28h.84c3.4-.48 6.24-2.06 8.52-4.74.84-1.04 1.64-2.28 2.4-3.72.8-1.44 1.56-3.14 2.28-5.1.56-1.56 1.1-3.12 1.62-4.68.52-1.6 1.08-3.18 1.68-4.74.64-1.72 1.4-3.32 2.28-4.8a32.15 32.15 0 0 1 2.94-4.26C38.32 4.62 41 2.46 43.8 1.3c-2.12.04-4.18.2-6.18.48-1.96.28-3.84.72-5.64 1.32-4.88 1.56-7.84 3.88-8.88 6.96-.16.44-.24.92-.24 1.44 0 .96.3 1.74.9 2.34.68.6 1.48.9 2.4.9 1.96 0 3.32-1.14 4.08-3.42.16-.44.24-.76.24-.96 0-.16-.02-.3-.06-.42v-.36l.12-.12c.2 0 .3.26.3.78 0 1.4-.5 2.58-1.5 3.54-1 1-2.18 1.5-3.54 1.5-1.2 0-2.2-.36-3-1.08-.8-.72-1.2-1.68-1.2-2.88 0-3.72 3-6.56 9-8.52 2.24-.72 4.5-1.22 6.78-1.5C39.7.98 42.02.82 44.34.82h1.02v.06h.06c-.4.2-.84.48-1.32.84-.44.32-.94.72-1.5 1.2-3.84 3.24-6.64 7.54-8.4 12.9-1.24 3.72-2.34 6.82-3.3 9.3-.96 2.44-1.8 4.26-2.52 5.46-2.96 4.96-7.06 8.06-12.3 9.3a9.5 9.5 0 0 1-1.86.3c-.6.08-1.22.12-1.86.12zm42.78 3.84c-3.12 0-5.92-1.26-8.4-3.78-.96-.96-1.9-2.14-2.82-3.54-.92-1.4-1.82-3.02-2.7-4.86-.68-1.48-1.34-2.96-1.98-4.44-.64-1.48-1.3-2.96-1.98-4.44-.6.16-1.22.24-1.86.24-.68 0-1.24-.14-1.68-.42-.64-.28-.96-.72-.96-1.32 0-.56.18-1.08.54-1.56.36-.44.82-.66 1.38-.66 1.24 0 2.5.88 3.78 2.64.92-.44 2.18-1.34 3.78-2.7 1.64-1.4 3.64-3.22 6-5.46A185.79 185.79 0 0 1 54.3 8.2c5.6-4.72 9.96-7.08 13.08-7.08.52 0 1.08.12 1.68.36.72.28 1.08.68 1.08 1.2 0 .24-.14.36-.42.36-.12 0-.22-.04-.3-.12-.36-.4-.88-.6-1.56-.6-1.68 0-4.02.96-7.02 2.88-1.12.72-2.22 1.46-3.3 2.22-1.04.76-2.04 1.6-3 2.52-1.24 1.12-2.48 2.28-3.72 3.48-1.2 1.16-2.44 2.32-3.72 3.48-1.56 1.48-3.02 2.7-4.38 3.66-1.36.92-2.62 1.6-3.78 2.04 1.16 1.84 2.3 3.68 3.42 5.52 1.16 1.84 2.34 3.66 3.54 5.46 1.64 2.52 3.18 4.5 4.62 5.94 1.48 1.44 2.78 2.38 3.9 2.82.36.12.72.22 1.08.3.4.08.76.12 1.08.12 2.4 0 3.82-1.42 4.26-4.26 0-.16.08-.24.24-.24.44 0 .66.18.66.54 0 .28-.04.56-.12.84-.08.32-.18.64-.3.96-1.04 2.36-3.1 3.54-6.18 3.54zM35.94 22.6h.6c.16 0 .32-.02.48-.06-.72-1.44-1.46-2.16-2.22-2.16-.76 0-1.14.38-1.14 1.14 0 .56.24.9.72 1.02.08 0 .24.02.48.06h1.08zm21.596 14.58c-2.84 0-4.26-1.4-4.26-4.2 0-2.2.82-4.98 2.46-8.34.08-.16.46-.86 1.14-2.1.72-1.28 1.74-3.1 3.06-5.46h-3.12l-.12-.12.06-.36.06-.06h3.42l4.32-7.56c.36.16.78.24 1.26.24.56 0 1.16-.2 1.8-.6.68-.36 1.14-.76 1.38-1.2l.18.06-5.4 9.06h4.14l.06.06v.36l-.12.12h-4.38l-4.08 7.2c-2.44 4.28-3.66 7.58-3.66 9.9 0 1.64.64 2.46 1.92 2.46 2 0 4.02-1.12 6.06-3.36.56-.6 1.22-1.5 1.98-2.7.76-1.2 1.4-2.34 1.92-3.42.08-.2.18-.26.3-.18.16.04.2.16.12.36-.6 1.2-1.24 2.34-1.92 3.42-.64 1.08-1.38 2.08-2.22 3-2.08 2.28-4.2 3.42-6.36 3.42z" fill="#006A71"/></svg>