<svg width="0" height="0" class="hidden">
  <symbol xmlns="http://www.w3.org/2000/svg" id="ham" viewBox="0 0 24 24">
    <g>
      <g>
        <rect width="24" height="24" opacity="0" transform="rotate(180 12 12)"></rect>
        <rect width="18" height="2" x="3" y="11" rx=".95" ry=".95"></rect>
        <rect width="18" height="2" x="3" y="16" rx=".95" ry=".95"></rect>
        <rect width="18" height="2" x="3" y="6" rx=".95" ry=".95"></rect>
      </g>
    </g>
  </symbol>
  <symbol aria-hidden="true" xmlns="http://www.w3.org/2000/svg" fill="none" viewBox="0 0 8 14" id="left-arrow">
    <path stroke="currentColor" stroke-linecap="round" stroke-linejoin="round" stroke-width="2" d="M7 1 1.3 6.326a.91.91 0 0 0 0 1.348L7 13"></path>
  </symbol>
  <symbol version="1.1" id="light" xmlns="http://www.w3.org/2000/svg" xmlns:xlink="http://www.w3.org/1999/xlink" x="0px" y="0px" xml:space="preserve" viewBox="0 0 122.88 122.67">
    <g>
      <path d="M122.88,62.58l-12.91,8.71l7.94,13.67l-15.03,3.23l2.72,15.92l-15.29-2.25l-2.76,15.58l-14.18-8.11 l-7.94,13.33l-10.32-11.93l-12.23,9.55l-4.97-15.16l-15.54,4.59l1.23-15.54L7.69,92.43l6.75-13.93L0,71.03l11.29-10.95L0.38,48.66 l14.65-6.5L9.42,27.51l15.58-0.76l0-15.8l14.78,5.22l5.99-14.82l11.93,9.98L68.15,0l7.6,13.33l14.18-6.5l2.12,15.07l15.8-1.15 l-3.86,15.46l15.41,4.2l-9.21,12.95L122.88,62.58L122.88,62.58z M104.96,61.1c0-12.14-4.29-22.46-12.87-31 c-8.58-8.54-18.94-12.82-31.04-12.82c-12.1,0-22.42,4.29-30.96,12.82c-8.54,8.53-12.82,18.85-12.82,31 c0,12.1,4.29,22.46,12.82,31.08c8.53,8.62,18.85,12.95,30.96,12.95c12.1,0,22.46-4.33,31.04-12.95 C100.67,83.56,104.96,73.2,104.96,61.1L104.96,61.1L104.96,61.1z"></path>
    </g>
  </symbol>
  <symbol xmlns="http://www.w3.org/2000/svg" id="linkedin" viewBox="0 0 24 24">
    <path d="M3 6.002c-1.654 0-3-1.346-3-3s1.346-3 3-3 3 1.346 3 3-1.346 3-3 3zm0-5c-1.103 0-2 .897-2 2s.897 2 2 2 2-.897 2-2-.897-2-2-2zM5.5 24.002h-5a.5.5 0 0 1-.5-.5v-15a.5.5 0 0 1 .5-.5h5a.5.5 0 0 1 .5.5v15a.5.5 0 0 1-.5.5zm-4.5-1h4v-14H1v14zM23.5 24.002h-5a.5.5 0 0 1-.5-.5v-9c0-1.135-.473-1.987-1.299-2.336-.853-.362-1.894-.14-2.701.556v10.78a.5.5 0 0 1-.5.5h-5a.5.5 0 0 1-.5-.5v-15a.5.5 0 0 1 .5-.5h5a.5.5 0 0 1 .484.375c1.604-1.154 4.276-1.796 6.413-1.064 1.613.553 3.546 2.073 3.603 6.183v10.007a.5.5 0 0 1-.5.499zm-4.5-1h4v-9.5c-.038-2.785-1.051-4.601-2.927-5.243-2.33-.798-5.266.407-6.183 1.555a.501.501 0 0 1-.89-.312v-.5H9v14h4v-10.5a.5.5 0 0 1 .151-.358c1.118-1.086 2.667-1.436 3.939-.899 1.214.514 1.91 1.701 1.909 3.257v8.5z"></path>
  </symbol>
  <symbol aria-hidden="true" xmlns="http://www.w3.org/2000/svg" fill="none" viewBox="0 0 8 14" id="right-arrow">
    <path stroke="currentColor" stroke-linecap="round" stroke-linejoin="round" stroke-width="2" d="m1 13 5.7-5.326a.909.909 0 0 0 0-1.348L1 1"></path>
  </symbol>
  <symbol xmlns="http://www.w3.org/2000/svg" id="close" viewBox="0 0 96 96">
    <switch>
      <g>
        <path d="m53.657 48 25.171-25.172a4 4 0 1 0-5.656-5.656L48 42.343 22.829 17.172a4 4 0 0 0-5.657 5.656L42.344 48 17.172 73.172a4 4 0 1 0 5.657 5.656L48 53.657l25.172 25.171C73.953 79.609 74.977 80 76 80s2.048-.391 2.828-1.172a4 4 0 0 0 0-5.656L53.657 48z"></path>
      </g>
    </switch>
  </symbol>
  <symbol id="dark" xmlns="http://www.w3.org/2000/svg" viewBox="0 0 122.56 122.88">
    <defs></defs>
    <title>night</title>
    <path d="M121.85,87.3A64.31,64.31,0,1,1,36.88.4c2.94-1.37,5.92.91,4.47,4.47a56.29,56.29,0,0,0,75.75,77.4l.49-.27a3.41,3.41,0,0,1,4.61,4.61l-.35.69ZM92.46,74.67H92A16.11,16.11,0,0,0,76.2,58.93v-.52a15.08,15.08,0,0,0,11-4.72,15.19,15.19,0,0,0,4.72-11h.51a15.12,15.12,0,0,0,4.72,11,15.12,15.12,0,0,0,11,4.72v.51A16.13,16.13,0,0,0,92.46,74.67Zm10.09-46.59h-.27a7.94,7.94,0,0,0-2.49-5.81A7.94,7.94,0,0,0,94,19.78v-.27A7.94,7.94,0,0,0,99.79,17a8,8,0,0,0,2.49-5.8h.27A8,8,0,0,0,105,17a8,8,0,0,0,5.81,2.49v.27A8,8,0,0,0,105,22.27a7.94,7.94,0,0,0-2.49,5.81Zm-41.5,8h-.41a12.06,12.06,0,0,0-3.78-8.82A12.06,12.06,0,0,0,48,23.5v-.41a12.07,12.07,0,0,0,8.82-3.78,12.09,12.09,0,0,0,3.78-8.82h.41a12.08,12.08,0,0,0,3.77,8.82,12.09,12.09,0,0,0,8.83,3.78v.41a12.09,12.09,0,0,0-8.83,3.78,12.08,12.08,0,0,0-3.77,8.82Z"></path>
  </symbol>
  <symbol xmlns="http://www.w3.org/2000/svg" id="github" viewBox="0 0 16 16">
    <path d="M7.999 0C3.582 0 0 3.596 0 8.032a8.031 8.031 0 0 0 5.472 7.621c.4.074.546-.174.546-.387 0-.191-.007-.696-.011-1.366-2.225.485-2.695-1.077-2.695-1.077-.363-.928-.888-1.175-.888-1.175-.727-.498.054-.488.054-.488.803.057 1.225.828 1.225.828.714 1.227 1.873.873 2.329.667.072-.519.279-.873.508-1.074-1.776-.203-3.644-.892-3.644-3.969 0-.877.312-1.594.824-2.156-.083-.203-.357-1.02.078-2.125 0 0 .672-.216 2.2.823a7.633 7.633 0 0 1 2.003-.27 7.65 7.65 0 0 1 2.003.271c1.527-1.039 2.198-.823 2.198-.823.436 1.106.162 1.922.08 2.125.513.562.822 1.279.822 2.156 0 3.085-1.87 3.764-3.652 3.963.287.248.543.738.543 1.487 0 1.074-.01 1.94-.01 2.203 0 .215.144.465.55.386A8.032 8.032 0 0 0 16 8.032C16 3.596 12.418 0 7.999 0z"></path>
  </symbol>
  <symbol xmlns="http://www.w3.org/2000/svg" id="gmail" viewBox="0 0 24 24">
    <path d="M22.062 21h-1.438a.5.5 0 0 1-.5-.5V8.609l-7.836 5.546a.502.502 0 0 1-.578 0L3.875 8.609V20.5a.5.5 0 0 1-.5.5H1.938C.851 21 0 20.158 0 19.083V4.917c0-.524.2-1.009.562-1.365A1.93 1.93 0 0 1 1.938 3h.479c.104 0 .206.033.291.093L12 9.732l9.292-6.639A.506.506 0 0 1 21.583 3h.479c.527 0 1.017.196 1.376.553.362.353.562.838.562 1.364v14.167C24 20.158 23.149 21 22.062 21zm-.937-1h.938c.534 0 .937-.394.937-.917V4.917a.898.898 0 0 0-.263-.651.948.948 0 0 0-.675-.266h-.319l-9.452 6.754a.502.502 0 0 1-.582 0L2.257 4h-.319a.936.936 0 0 0-.671.262.905.905 0 0 0-.267.655v14.167c0 .531.395.916.938.916h.938V7.643a.499.499 0 0 1 .79-.408l8.336 5.9 8.336-5.9a.503.503 0 0 1 .79.408V20z"></path>
  </symbol>
</svg>