<svg width="0" height="0" class="hidden">
  <symbol aria-hidden="true" xmlns="http://www.w3.org/2000/svg" fill="none" viewBox="0 0 8 14" id="left-arrow">
    <path stroke="currentColor" stroke-linecap="round" stroke-linejoin="round" stroke-width="2" d="M7 1 1.3 6.326a.91.91 0 0 0 0 1.348L7 13"></path>
  </symbol>
  <symbol version="1.1" id="light" xmlns="http://www.w3.org/2000/svg" xmlns:xlink="http://www.w3.org/1999/xlink" x="0px" y="0px" xml:space="preserve" viewBox="0 0 122.88 122.67">
    <g>
      <path d="M122.88,62.58l-12.91,8.71l7.94,13.67l-15.03,3.23l2.72,15.92l-15.29-2.25l-2.76,15.58l-14.18-8.11 l-7.94,13.33l-10.32-11.93l-12.23,9.55l-4.97-15.16l-15.54,4.59l1.23-15.54L7.69,92.43l6.75-13.93L0,71.03l11.29-10.95L0.38,48.66 l14.65-6.5L9.42,27.51l15.58-0.76l0-15.8l14.78,5.22l5.99-14.82l11.93,9.98L68.15,0l7.6,13.33l14.18-6.5l2.12,15.07l15.8-1.15 l-3.86,15.46l15.41,4.2l-9.21,12.95L122.88,62.58L122.88,62.58z M104.96,61.1c0-12.14-4.29-22.46-12.87-31 c-8.58-8.54-18.94-12.82-31.04-12.82c-12.1,0-22.42,4.29-30.96,12.82c-8.54,8.53-12.82,18.85-12.82,31 c0,12.1,4.29,22.46,12.82,31.08c8.53,8.62,18.85,12.95,30.96,12.95c12.1,0,22.46-4.33,31.04-12.95 C100.67,83.56,104.96,73.2,104.96,61.1L104.96,61.1L104.96,61.1z"></path>
    </g>
  </symbol>
  <symbol aria-hidden="true" xmlns="http://www.w3.org/2000/svg" fill="currentColor" viewBox="0 0 15 15" id="linkedin">
    <path fill-rule="evenodd" d="M7.979 5v1.586a3.5 3.5 0 0 1 3.082-1.574C14.3 5.012 15 7.03 15 9.655V15h-3v-4.738c0-1.13-.229-2.584-1.995-2.584-1.713 0-2.005 1.23-2.005 2.5V15H5.009V5h2.97ZM3 2.487a1.5 1.5 0 1 1-3 0 1.5 1.5 0 0 1 3 0Z" clip-rule="evenodd"></path>
    <path d="M3 5.012H0V15h3V5.012Z"></path>
  </symbol>
  <symbol aria-hidden="true" xmlns="http://www.w3.org/2000/svg" fill="none" viewBox="0 0 8 14" id="right-arrow">
    <path stroke="currentColor" stroke-linecap="round" stroke-linejoin="round" stroke-width="2" d="m1 13 5.7-5.326a.909.909 0 0 0 0-1.348L1 1"></path>
  </symbol>
  <symbol aria-hidden="true" xmlns="http://www.w3.org/2000/svg" fill="none" viewBox="0 0 14 14" id="close">
    <path stroke="currentColor" stroke-linecap="round" stroke-linejoin="round" stroke-width="2" d="m1 1 6 6m0 0 6 6M7 7l6-6M7 7l-6 6"></path>
  </symbol>
  <symbol id="dark" xmlns="http://www.w3.org/2000/svg" viewBox="0 0 122.56 122.88">
    <defs></defs>
    <title>night</title>
    <path d="M121.85,87.3A64.31,64.31,0,1,1,36.88.4c2.94-1.37,5.92.91,4.47,4.47a56.29,56.29,0,0,0,75.75,77.4l.49-.27a3.41,3.41,0,0,1,4.61,4.61l-.35.69ZM92.46,74.67H92A16.11,16.11,0,0,0,76.2,58.93v-.52a15.08,15.08,0,0,0,11-4.72,15.19,15.19,0,0,0,4.72-11h.51a15.12,15.12,0,0,0,4.72,11,15.12,15.12,0,0,0,11,4.72v.51A16.13,16.13,0,0,0,92.46,74.67Zm10.09-46.59h-.27a7.94,7.94,0,0,0-2.49-5.81A7.94,7.94,0,0,0,94,19.78v-.27A7.94,7.94,0,0,0,99.79,17a8,8,0,0,0,2.49-5.8h.27A8,8,0,0,0,105,17a8,8,0,0,0,5.81,2.49v.27A8,8,0,0,0,105,22.27a7.94,7.94,0,0,0-2.49,5.81Zm-41.5,8h-.41a12.06,12.06,0,0,0-3.78-8.82A12.06,12.06,0,0,0,48,23.5v-.41a12.07,12.07,0,0,0,8.82-3.78,12.09,12.09,0,0,0,3.78-8.82h.41a12.08,12.08,0,0,0,3.77,8.82,12.09,12.09,0,0,0,8.83,3.78v.41a12.09,12.09,0,0,0-8.83,3.78,12.08,12.08,0,0,0-3.77,8.82Z"></path>
  </symbol>
  <symbol fill="none" xmlns="http://www.w3.org/2000/svg" viewBox="0 0 24 24" id="gmail">
    <path fill-rule="evenodd" clip-rule="evenodd" d="M6.75732 6.22215L11.9865 10.0365L17.3285 6.09078C18.1446 5.44632 19.191 5.33494 20.046 5.76509C20.9153 6.20242 21.5 7.1513 21.5 8.44705V16.7618C21.5 17.2333 21.4407 17.9088 21.0814 18.4781C20.6956 19.0893 20.019 19.4943 18.9793 19.4943H16.889C16.6129 19.4943 16.389 19.2704 16.389 18.9943V13.2008L12.2867 16.2518C12.1093 16.3838 11.8662 16.3835 11.689 16.2511L7.61098 13.2036V16.7186C7.61098 16.9947 7.38713 17.2186 7.11098 17.2186C6.83484 17.2186 6.61098 16.9947 6.61098 16.7186V12.2058C6.61098 12.0165 6.71781 11.8435 6.88699 11.7588C7.05617 11.674 7.25871 11.692 7.41029 11.8053L11.9891 15.2269L16.5906 11.8046C16.7423 11.6918 16.9446 11.6741 17.1135 11.759C17.2824 11.8439 17.389 12.0168 17.389 12.2058V18.4943H18.9793C19.7234 18.4943 20.0572 18.2272 20.2358 17.9443C20.4408 17.6194 20.5 17.1787 20.5 16.7618V8.44705C20.5 7.46479 20.0744 6.89879 19.5966 6.65841C19.1071 6.41213 18.4732 6.45826 17.9434 6.87938C17.9388 6.88305 17.9341 6.88664 17.9294 6.89014L12.2854 11.0589C12.1097 11.1887 11.8701 11.1894 11.6937 11.0607L6.16182 7.02554C5.66596 6.65592 4.93253 6.43285 4.36979 6.51816C4.10149 6.55884 3.89833 6.66433 3.75932 6.82883C3.62023 6.99343 3.5 7.27084 3.5 7.74087V17.1491C3.5 17.8103 3.73627 18.1246 3.96224 18.2868C4.21573 18.4688 4.53566 18.5148 4.74399 18.4962C4.75875 18.4949 4.77357 18.4943 4.78839 18.4943H6.11098C6.38713 18.4943 6.61098 18.7181 6.61098 18.9943C6.61098 19.2704 6.38713 19.4943 6.11098 19.4943H4.80887C4.42163 19.5237 3.86072 19.445 3.37906 19.0992C2.85986 18.7264 2.5 18.0915 2.5 17.1491V7.74087C2.5 7.09846 2.66719 6.57192 2.99552 6.18339C3.32393 5.79476 3.7682 5.59794 4.2199 5.52946C5.09621 5.39661 6.09189 5.72702 6.75732 6.22215Z" fill="#000000"></path>
  </symbol>
  <symbol aria-hidden="true" xmlns="http://www.w3.org/2000/svg" fill="currentColor" viewBox="0 0 20 20" id="github">
    <path fill-rule="evenodd" d="M10 .333A9.911 9.911 0 0 0 6.866 19.65c.5.092.678-.215.678-.477 0-.237-.01-1.017-.014-1.845-2.757.6-3.338-1.169-3.338-1.169a2.627 2.627 0 0 0-1.1-1.451c-.9-.615.07-.6.07-.6a2.084 2.084 0 0 1 1.518 1.021 2.11 2.11 0 0 0 2.884.823c.044-.503.268-.973.63-1.325-2.2-.25-4.516-1.1-4.516-4.9A3.832 3.832 0 0 1 4.7 7.068a3.56 3.56 0 0 1 .095-2.623s.832-.266 2.726 1.016a9.409 9.409 0 0 1 4.962 0c1.89-1.282 2.717-1.016 2.717-1.016.366.83.402 1.768.1 2.623a3.827 3.827 0 0 1 1.02 2.659c0 3.807-2.319 4.644-4.525 4.889a2.366 2.366 0 0 1 .673 1.834c0 1.326-.012 2.394-.012 2.72 0 .263.18.572.681.475A9.911 9.911 0 0 0 10 .333Z" clip-rule="evenodd"></path>
  </symbol>
  <symbol aria-hidden="true" xmlns="http://www.w3.org/2000/svg" fill="none" viewBox="0 0 17 14" id="ham">
    <path stroke="currentColor" stroke-linecap="round" stroke-linejoin="round" stroke-width="2" d="M1 1h15M1 7h15M1 13h15"></path>
  </symbol>
</svg>