<svg width="0" height="0" class="hidden">
  <symbol aria-hidden="true" xmlns="http://www.w3.org/2000/svg" fill="none" viewBox="0 0 8 14" id="left-arrow">
    <path stroke="currentColor" stroke-linecap="round" stroke-linejoin="round" stroke-width="2" d="M7 1 1.3 6.326a.91.91 0 0 0 0 1.348L7 13"></path>
  </symbol>
  <symbol version="1.1" id="light" xmlns="http://www.w3.org/2000/svg" xmlns:xlink="http://www.w3.org/1999/xlink" x="0px" y="0px" xml:space="preserve" viewBox="0 0 240 240">
    <g>
      <path d="M58.57,25.81c-2.13-3.67-0.87-8.38,2.8-10.51c3.67-2.13,8.38-0.88,10.51,2.8l9.88,17.1c2.13,3.67,0.87,8.38-2.8,10.51 c-3.67,2.13-8.38,0.88-10.51-2.8L58.57,25.81L58.57,25.81z M120,51.17c19.01,0,36.21,7.7,48.67,20.16 C181.12,83.79,188.83,101,188.83,120c0,19.01-7.7,36.21-20.16,48.67c-12.46,12.46-29.66,20.16-48.67,20.16 c-19.01,0-36.21-7.7-48.67-20.16C58.88,156.21,51.17,139.01,51.17,120c0-19.01,7.7-36.21,20.16-48.67 C83.79,58.88,101,51.17,120,51.17L120,51.17z M158.27,81.73c-9.79-9.79-23.32-15.85-38.27-15.85c-14.95,0-28.48,6.06-38.27,15.85 c-9.79,9.79-15.85,23.32-15.85,38.27c0,14.95,6.06,28.48,15.85,38.27c9.79,9.79,23.32,15.85,38.27,15.85 c14.95,0,28.48-6.06,38.27-15.85c9.79-9.79,15.85-23.32,15.85-38.27C174.12,105.05,168.06,91.52,158.27,81.73L158.27,81.73z M113.88,7.71c0-4.26,3.45-7.71,7.71-7.71c4.26,0,7.71,3.45,7.71,7.71v19.75c0,4.26-3.45,7.71-7.71,7.71 c-4.26,0-7.71-3.45-7.71-7.71V7.71L113.88,7.71z M170.87,19.72c2.11-3.67,6.8-4.94,10.48-2.83c3.67,2.11,4.94,6.8,2.83,10.48 l-9.88,17.1c-2.11,3.67-6.8,4.94-10.48,2.83c-3.67-2.11-4.94-6.8-2.83-10.48L170.87,19.72L170.87,19.72z M214.19,58.57 c3.67-2.13,8.38-0.87,10.51,2.8c2.13,3.67,0.88,8.38-2.8,10.51l-17.1,9.88c-3.67,2.13-8.38,0.87-10.51-2.8 c-2.13-3.67-0.88-8.38,2.8-10.51L214.19,58.57L214.19,58.57z M232.29,113.88c4.26,0,7.71,3.45,7.71,7.71 c0,4.26-3.45,7.71-7.71,7.71h-19.75c-4.26,0-7.71-3.45-7.71-7.71c0-4.26,3.45-7.71,7.71-7.71H232.29L232.29,113.88z M220.28,170.87 c3.67,2.11,4.94,6.8,2.83,10.48c-2.11,3.67-6.8,4.94-10.48,2.83l-17.1-9.88c-3.67-2.11-4.94-6.8-2.83-10.48 c2.11-3.67,6.8-4.94,10.48-2.83L220.28,170.87L220.28,170.87z M181.43,214.19c2.13,3.67,0.87,8.38-2.8,10.51 c-3.67,2.13-8.38,0.88-10.51-2.8l-9.88-17.1c-2.13-3.67-0.87-8.38,2.8-10.51c3.67-2.13,8.38-0.88,10.51,2.8L181.43,214.19 L181.43,214.19z M126.12,232.29c0,4.26-3.45,7.71-7.71,7.71c-4.26,0-7.71-3.45-7.71-7.71v-19.75c0-4.26,3.45-7.71,7.71-7.71 c4.26,0,7.71,3.45,7.71,7.71V232.29L126.12,232.29z M69.13,220.28c-2.11,3.67-6.8,4.94-10.48,2.83c-3.67-2.11-4.94-6.8-2.83-10.48 l9.88-17.1c2.11-3.67,6.8-4.94,10.48-2.83c3.67,2.11,4.94,6.8,2.83,10.48L69.13,220.28L69.13,220.28z M25.81,181.43 c-3.67,2.13-8.38,0.87-10.51-2.8c-2.13-3.67-0.88-8.38,2.8-10.51l17.1-9.88c3.67-2.13,8.38-0.87,10.51,2.8 c2.13,3.67,0.88,8.38-2.8,10.51L25.81,181.43L25.81,181.43z M7.71,126.12c-4.26,0-7.71-3.45-7.71-7.71c0-4.26,3.45-7.71,7.71-7.71 h19.75c4.26,0,7.71,3.45,7.71,7.71c0,4.26-3.45,7.71-7.71,7.71H7.71L7.71,126.12z M19.72,69.13c-3.67-2.11-4.94-6.8-2.83-10.48 c2.11-3.67,6.8-4.94,10.48-2.83l17.1,9.88c3.67,2.11,4.94,6.8,2.83,10.48c-2.11,3.67-6.8,4.94-10.48,2.83L19.72,69.13L19.72,69.13z"></path>
    </g>
  </symbol>
  <symbol aria-hidden="true" xmlns="http://www.w3.org/2000/svg" fill="currentColor" viewBox="0 0 15 15" id="linkedin">
    <path fill-rule="evenodd" d="M7.979 5v1.586a3.5 3.5 0 0 1 3.082-1.574C14.3 5.012 15 7.03 15 9.655V15h-3v-4.738c0-1.13-.229-2.584-1.995-2.584-1.713 0-2.005 1.23-2.005 2.5V15H5.009V5h2.97ZM3 2.487a1.5 1.5 0 1 1-3 0 1.5 1.5 0 0 1 3 0Z" clip-rule="evenodd"></path>
    <path d="M3 5.012H0V15h3V5.012Z"></path>
  </symbol>
  <symbol aria-hidden="true" xmlns="http://www.w3.org/2000/svg" fill="none" viewBox="0 0 8 14" id="right-arrow">
    <path stroke="currentColor" stroke-linecap="round" stroke-linejoin="round" stroke-width="2" d="m1 13 5.7-5.326a.909.909 0 0 0 0-1.348L1 1"></path>
  </symbol>
  <symbol aria-hidden="true" xmlns="http://www.w3.org/2000/svg" fill="none" viewBox="0 0 14 14" id="close">
    <path stroke="currentColor" stroke-linecap="round" stroke-linejoin="round" stroke-width="2" d="m1 1 6 6m0 0 6 6M7 7l6-6M7 7l-6 6"></path>
  </symbol>
  <symbol id="dark" xmlns="http://www.w3.org/2000/svg" viewBox="0 0 122.56 122.88">
    <defs></defs>
    <title>night</title>
    <path d="M121.85,87.3A64.31,64.31,0,1,1,36.88.4c2.94-1.37,5.92.91,4.47,4.47a56.29,56.29,0,0,0,75.75,77.4l.49-.27a3.41,3.41,0,0,1,4.61,4.61l-.35.69ZM92.46,74.67H92A16.11,16.11,0,0,0,76.2,58.93v-.52a15.08,15.08,0,0,0,11-4.72,15.19,15.19,0,0,0,4.72-11h.51a15.12,15.12,0,0,0,4.72,11,15.12,15.12,0,0,0,11,4.72v.51A16.13,16.13,0,0,0,92.46,74.67Zm10.09-46.59h-.27a7.94,7.94,0,0,0-2.49-5.81A7.94,7.94,0,0,0,94,19.78v-.27A7.94,7.94,0,0,0,99.79,17a8,8,0,0,0,2.49-5.8h.27A8,8,0,0,0,105,17a8,8,0,0,0,5.81,2.49v.27A8,8,0,0,0,105,22.27a7.94,7.94,0,0,0-2.49,5.81Zm-41.5,8h-.41a12.06,12.06,0,0,0-3.78-8.82A12.06,12.06,0,0,0,48,23.5v-.41a12.07,12.07,0,0,0,8.82-3.78,12.09,12.09,0,0,0,3.78-8.82h.41a12.08,12.08,0,0,0,3.77,8.82,12.09,12.09,0,0,0,8.83,3.78v.41a12.09,12.09,0,0,0-8.83,3.78,12.08,12.08,0,0,0-3.77,8.82Z"></path>
  </symbol>
  <symbol aria-hidden="true" xmlns="http://www.w3.org/2000/svg" fill="currentColor" viewBox="0 0 20 20" id="github">
    <path fill-rule="evenodd" d="M10 .333A9.911 9.911 0 0 0 6.866 19.65c.5.092.678-.215.678-.477 0-.237-.01-1.017-.014-1.845-2.757.6-3.338-1.169-3.338-1.169a2.627 2.627 0 0 0-1.1-1.451c-.9-.615.07-.6.07-.6a2.084 2.084 0 0 1 1.518 1.021 2.11 2.11 0 0 0 2.884.823c.044-.503.268-.973.63-1.325-2.2-.25-4.516-1.1-4.516-4.9A3.832 3.832 0 0 1 4.7 7.068a3.56 3.56 0 0 1 .095-2.623s.832-.266 2.726 1.016a9.409 9.409 0 0 1 4.962 0c1.89-1.282 2.717-1.016 2.717-1.016.366.83.402 1.768.1 2.623a3.827 3.827 0 0 1 1.02 2.659c0 3.807-2.319 4.644-4.525 4.889a2.366 2.366 0 0 1 .673 1.834c0 1.326-.012 2.394-.012 2.72 0 .263.18.572.681.475A9.911 9.911 0 0 0 10 .333Z" clip-rule="evenodd"></path>
  </symbol>
  <symbol aria-hidden="true" xmlns="http://www.w3.org/2000/svg" fill="none" viewBox="0 0 17 14" id="ham">
    <path stroke="currentColor" stroke-linecap="round" stroke-linejoin="round" stroke-width="2" d="M1 1h15M1 7h15M1 13h15"></path>
  </symbol>
</svg>